<svg xmlns="http://www.w3.org/2000/svg"
 width="87.000000pt" height="91.000000pt" viewBox="0 0 87.000000 91.000000"
 preserveAspectRatio="xMidYMid meet">

<path d="M462 878 c2 -25 9 -33 31 -39 24 -6 27 -5 27 16 0 22 -32 55 -53 55
-4 0 -7 -14 -5 -32z"/>
<path d="M371 866 c-23 -24 -23 -26 -22 -263 1 -132 -1 -247 -5 -256 -18 -47
-24 18 -24 259 l0 266 -27 -33 -28 -33 3 -180 c3 -213 -1 -237 -48 -252 -19
-6 -36 -16 -37 -21 -4 -11 59 -63 102 -85 116 -58 263 -41 348 39 l27 27 0
229 0 228 -27 -21 -28 -22 -5 -196 c-4 -144 -8 -196 -17 -200 -10 -3 -13 32
-13 152 0 149 -1 155 -22 170 -31 22 -74 20 -98 -4 -18 -18 -20 -33 -20 -190
0 -104 -4 -170 -10 -170 -20 0 -23 59 -17 299 3 135 2 254 -2 264 -6 16 -9 16
-30 -7z m149 -381 c0 -122 -2 -145 -15 -145 -13 0 -15 23 -15 145 0 122 2 145
15 145 13 0 15 -23 15 -145z"/>
<path d="M537 863 c-15 -14 -6 -31 19 -37 19 -5 30 -2 39 11 7 10 11 21 9 25
-6 10 -58 10 -67 1z"/>
<path d="M178 790 c-58 -76 -90 -200 -55 -213 10 -4 10 -7 0 -18 -16 -16 -16
-51 -3 -99 15 -56 31 -73 62 -65 l27 7 -20 27 c-27 37 -34 91 -16 116 15 19
16 19 36 1 24 -22 25 -20 10 23 -9 25 -8 40 5 71 20 50 20 89 2 116 -8 11 -16
31 -18 44 -3 25 -3 25 -30 -10z m7 -134 c-33 -51 -48 -21 -18 37 15 31 16 31
26 11 6 -16 4 -29 -8 -48z"/>
<path d="M475 780 c-12 -20 6 -50 31 -50 19 0 24 5 24 24 0 14 -4 28 -10 31
-5 3 -10 -3 -10 -14 0 -12 -5 -21 -11 -21 -6 0 -8 9 -4 20 7 20 -9 28 -20 10z"/>
<path d="M695 700 c11 -120 11 -248 2 -295 l-8 -40 20 25 c25 32 51 124 51
182 0 52 -32 163 -56 193 -15 19 -16 14 -9 -65z"/>
<path d="M31 134 c-11 -31 -21 -58 -21 -60 0 -11 29 -2 34 11 7 19 45 19 52 0
6 -16 34 -21 34 -6 0 4 -10 31 -21 60 -29 69 -50 68 -78 -5z m49 1 c0 -8 -4
-15 -10 -15 -5 0 -10 7 -10 15 0 8 5 15 10 15 6 0 10 -7 10 -15z"/>
<path d="M150 130 l0 -60 40 0 c29 0 40 4 40 15 0 9 -9 15 -25 15 -23 0 -25 4
-25 45 0 33 -4 45 -15 45 -12 0 -15 -13 -15 -60z"/>
<path d="M290 130 c0 -47 3 -60 15 -60 8 0 15 9 15 20 0 13 7 20 20 20 11 0
20 7 20 15 0 9 -9 15 -21 15 -12 0 -19 5 -16 13 2 6 14 12 26 11 11 0 21 5 21
13 0 9 -13 13 -40 13 l-40 0 0 -60z"/>
<path d="M401 139 c-11 -29 -21 -56 -21 -60 0 -15 28 -10 34 6 7 19 45 19 52
0 4 -8 13 -15 21 -15 10 0 13 5 8 18 -4 9 -14 36 -22 60 -21 59 -44 56 -72 -9z
m49 -10 c0 -5 -4 -9 -10 -9 -5 0 -10 7 -10 16 0 8 5 12 10 9 6 -3 10 -10 10
-16z"/>
<path d="M520 129 l0 -60 37 3 c42 3 59 28 19 28 -24 0 -26 3 -26 45 0 33 -4
45 -15 45 -12 0 -15 -13 -15 -61z"/>
<path d="M630 135 c-24 -60 -21 -78 8 -52 23 21 48 22 56 2 3 -8 13 -15 22
-15 8 0 14 4 12 8 -1 4 -12 31 -22 60 -27 70 -47 69 -76 -3z m50 -6 c0 -5 -7
-9 -15 -9 -9 0 -12 6 -9 15 6 15 24 11 24 -6z"/>
<path d="M742 133 c2 -44 7 -58 18 -58 8 0 16 10 18 23 5 32 42 30 42 -3 0
-16 6 -25 15 -25 12 0 15 13 15 60 0 47 -3 60 -15 60 -8 0 -15 -9 -15 -20 0
-13 -7 -20 -20 -20 -13 0 -20 7 -20 20 0 13 -7 20 -20 20 -19 0 -21 -5 -18
-57z"/>
<path d="M21 36 c-9 -10 -8 -15 2 -19 8 -3 13 3 13 14 0 23 0 23 -15 5z"/>
<path d="M62 30 c0 -14 2 -19 5 -12 2 6 2 18 0 25 -3 6 -5 1 -5 -13z"/>
<path d="M122 30 c0 -14 2 -19 5 -12 2 6 2 18 0 25 -3 6 -5 1 -5 -13z"/>
<path d="M152 30 c0 -14 2 -19 5 -12 2 6 2 18 0 25 -3 6 -5 1 -5 -13z"/>
<path d="M180 40 c0 -5 5 -10 11 -10 5 0 7 5 4 10 -3 6 -8 10 -11 10 -2 0 -4
-4 -4 -10z"/>
<path d="M207 36 c-4 -10 -5 -21 -2 -24 9 -9 17 6 13 25 -3 17 -4 17 -11 -1z"/>
<path d="M287 43 c-4 -3 -7 -13 -6 -22 0 -12 3 -11 9 4 7 17 9 17 9 3 1 -10 6
-18 11 -18 7 0 7 6 0 20 -12 22 -14 23 -23 13z"/>
<path d="M330 28 c0 -19 2 -20 10 -8 13 19 13 30 0 30 -5 0 -10 -10 -10 -22z"/>
<path d="M392 30 c0 -14 2 -19 5 -12 2 6 2 18 0 25 -3 6 -5 1 -5 -13z"/>
<path d="M512 30 c0 -14 2 -19 5 -12 2 6 2 18 0 25 -3 6 -5 1 -5 -13z"/>
<path d="M542 30 c0 -14 2 -19 5 -12 2 6 2 18 0 25 -3 6 -5 1 -5 -13z"/>
<path d="M560 32 c0 -11 7 -18 20 -18 11 0 20 4 20 8 0 4 -7 8 -16 8 -8 0 -12
5 -9 10 3 6 1 10 -4 10 -6 0 -11 -8 -11 -18z"/>
<path d="M637 29 c4 -13 8 -18 11 -10 2 7 -1 18 -6 23 -8 8 -9 4 -5 -13z"/>
<path d="M672 30 c0 -14 2 -19 5 -12 2 6 2 18 0 25 -3 6 -5 1 -5 -13z"/>
<path d="M734 35 c-4 -9 -4 -19 0 -22 3 -4 6 2 7 13 0 18 1 18 9 -1 7 -16 9
-17 9 -3 1 23 -18 33 -25 13z"/>
<path d="M835 40 c3 -5 8 -10 11 -10 2 0 4 5 4 10 0 6 -5 10 -11 10 -5 0 -7
-4 -4 -10z"/>
<path d="M355 31 c-3 -5 -1 -12 5 -16 5 -3 10 1 10 9 0 18 -6 21 -15 7z"/>
<path d="M786 27 c3 -10 9 -15 12 -12 3 3 0 11 -7 18 -10 9 -11 8 -5 -6z"/>
<path d="M485 20 c3 -5 8 -10 11 -10 2 0 4 5 4 10 0 6 -5 10 -11 10 -5 0 -7
-4 -4 -10z"/>
</svg>
