<?xml version="1.0" standalone="no"?>
<!DOCTYPE svg PUBLIC "-//W3C//DTD SVG 20010904//EN"
 "http://www.w3.org/TR/2001/REC-SVG-20010904/DTD/svg10.dtd">
<svg version="1.0" xmlns="http://www.w3.org/2000/svg"
 width="206pt" height="74pt" viewBox="0 0 206.000000 74.000000"
 preserveAspectRatio="xMidYMid meet">

<g transform="translate(0.000000,74.000000) scale(0.100000,-0.100000)"
fill="#000000" stroke="none">
<path d="M290 710 c0 -23 4 -30 20 -30 28 0 27 0 57 -15 23 -12 28 -12 39 3
23 32 -25 58 -55 30 -10 -9 -12 -9 -7 -1 6 11 -28 43 -46 43 -5 0 -8 -13 -8
-30z"/>
<path d="M222 705 c-23 -24 -24 -28 -22 -230 0 -135 -3 -205 -10 -205 -6 0
-10 76 -10 223 l0 222 -26 -32 c-25 -32 -25 -37 -27 -200 l-2 -167 -30 -16
c-16 -8 -32 -17 -35 -18 -11 -9 75 -72 118 -86 89 -31 198 -13 254 41 l28 27
0 188 c0 103 -4 188 -8 188 -5 0 -17 -9 -27 -20 -16 -17 -18 -38 -16 -174 2
-100 -1 -156 -8 -161 -8 -4 -11 31 -11 112 0 91 -4 124 -16 141 -18 26 -50 28
-82 6 -21 -14 -22 -22 -22 -155 0 -84 -4 -139 -10 -139 -6 0 -11 91 -12 239
l-3 240 -23 -24z m118 -315 c0 -73 -4 -120 -10 -120 -6 0 -10 47 -10 120 0 73
4 120 10 120 6 0 10 -47 10 -120z"/>
<path d="M62 643 c-50 -70 -77 -162 -52 -178 6 -3 6 -15 0 -30 -17 -45 18
-125 55 -125 30 0 30 0 4 44 -15 26 -19 44 -14 66 8 35 12 36 37 13 17 -15 18
-15 7 15 -9 25 -7 41 6 76 15 40 16 47 2 77 -9 19 -17 43 -19 54 -3 17 -6 16
-26 -12z m-1 -126 c-17 -17 -22 -2 -9 29 11 28 12 29 16 5 2 -13 -1 -28 -7
-34z"/>
<path d="M672 467 c-23 -105 -42 -196 -42 -200 0 -5 19 -7 43 -5 38 3 42 6 45
31 3 26 6 28 40 25 32 -3 37 -7 40 -30 3 -26 7 -28 48 -28 24 0 44 3 44 8 0 4
-19 94 -42 200 l-43 192 -45 0 -45 0 -43 -193z m98 -18 c0 -17 -5 -29 -13 -29
-9 0 -12 11 -9 35 5 41 22 37 22 -6z"/>
<path d="M900 460 l0 -200 40 0 40 0 0 200 0 200 -40 0 -40 0 0 -200z"/>
<path d="M1120 460 l0 -200 40 0 39 0 3 78 3 77 43 3 42 3 0 45 0 44 -45 0
c-41 0 -45 2 -45 25 0 24 3 25 55 25 l55 0 0 50 0 50 -95 0 -95 0 0 -200z"/>
<path d="M1540 460 l0 -200 40 0 40 0 0 200 0 200 -40 0 -40 0 0 -200z"/>
<path d="M1860 460 l0 -200 40 0 39 0 3 97 c2 66 7 98 16 101 9 3 12 -21 12
-97 l0 -101 41 0 41 0 -4 129 c-3 110 -6 132 -22 150 -21 23 -56 27 -74 9 -9
-9 -12 2 -12 50 l0 62 -40 0 -40 0 0 -200z"/>
<path d="M305 630 c-9 -15 4 -50 19 -50 20 0 39 27 32 45 -6 17 -42 20 -51 5z
m30 -10 c3 -5 1 -10 -4 -10 -6 0 -11 5 -11 10 0 6 2 10 4 10 3 0 8 -4 11 -10z"/>
<path d="M480 588 c0 -25 5 -70 11 -102 9 -43 9 -74 0 -128 -6 -39 -9 -73 -6
-76 11 -11 48 95 53 153 5 68 -17 163 -43 185 -13 11 -15 6 -15 -32z"/>
<path d="M1367 553 c-18 -5 -47 -52 -47 -77 0 -22 61 -32 75 -12 15 20 35 21
35 2 0 -8 -17 -20 -37 -26 -21 -7 -46 -19 -55 -28 -26 -22 -32 -73 -14 -115
14 -34 19 -37 53 -37 22 0 44 5 50 11 8 8 13 8 17 0 4 -6 22 -11 39 -11 l32 0
-3 107 c-3 129 -7 148 -32 173 -19 19 -68 25 -113 13z m61 -195 c-2 -13 -11
-24 -20 -26 -21 -4 -24 18 -6 36 19 19 30 14 26 -10z"/>
<path d="M1676 538 c-14 -13 -28 -35 -31 -49 -5 -22 -2 -27 17 -33 38 -10 58
-7 58 9 0 17 25 20 35 5 4 -6 -18 -21 -48 -35 -30 -13 -57 -31 -61 -40 -11
-30 -6 -90 9 -112 13 -19 24 -21 101 -21 l86 0 -6 37 c-3 20 -6 76 -6 124 0
80 -2 90 -25 112 -32 33 -94 34 -129 3z m84 -164 c0 -13 -21 -44 -30 -44 -11
0 -14 33 -3 43 8 8 33 9 33 1z"/>
<path d="M620 170 c0 -27 5 -50 10 -50 6 0 10 9 10 20 0 26 14 25 33 -2 8 -13
18 -20 22 -16 3 3 -1 18 -11 32 -16 25 -16 28 1 46 15 17 16 20 3 20 -9 0 -23
-10 -31 -22 l-16 -23 0 23 c-2 46 -21 20 -21 -28z"/>
<path d="M1013 206 c-12 -22 -4 -86 11 -86 7 0 10 17 9 46 -2 52 -7 62 -20 40z"/>
<path d="M1383 204 c-7 -18 20 -44 44 -44 7 0 13 -4 13 -9 0 -17 -21 -23 -36
-10 -17 14 -33 4 -17 -12 6 -6 23 -9 39 -7 39 4 39 38 2 56 -29 14 -37 32 -15
32 7 0 18 -5 25 -12 9 -9 12 -8 12 5 0 23 -58 24 -67 1z"/>
<path d="M1730 169 l0 -50 33 3 c28 3 32 6 32 33 0 23 -5 31 -22 33 -13 2 -23
10 -23 18 0 8 -4 14 -10 14 -5 0 -10 -23 -10 -51z m48 -11 c-5 -32 -28 -35
-28 -4 0 17 5 26 16 26 10 0 14 -7 12 -22z"/>
<path d="M816 202 c-11 -18 6 -82 22 -82 13 0 13 3 4 12 -15 15 -16 45 -1 50
7 2 6 8 -4 16 -8 7 -18 9 -21 4z"/>
<path d="M726 172 c-4 -11 -4 -27 0 -36 7 -18 49 -22 60 -5 4 7 0 9 -14 5 -11
-4 -23 -2 -27 4 -4 6 4 10 20 10 20 0 26 4 23 18 -5 25 -55 29 -62 4z m44 -2
c0 -5 -7 -10 -15 -10 -8 0 -15 5 -15 10 0 6 7 10 15 10 8 0 15 -4 15 -10z"/>
<path d="M870 155 c0 -19 5 -35 10 -35 6 0 10 16 10 35 0 19 -4 35 -10 35 -5
0 -10 -16 -10 -35z"/>
<path d="M910 155 c0 -41 17 -47 22 -8 4 39 28 42 28 4 0 -17 5 -31 10 -31 6
0 10 16 10 35 0 33 -2 35 -35 35 -33 0 -35 -2 -35 -35z"/>
<path d="M1064 179 c-4 -8 0 -9 15 -4 11 3 21 2 21 -3 0 -5 -9 -12 -20 -15
-34 -9 -24 -37 13 -37 32 0 33 1 29 35 -3 29 -8 35 -28 35 -12 0 -26 -5 -30
-11z m41 -39 c-3 -5 -10 -10 -16 -10 -5 0 -9 5 -9 10 0 6 7 10 16 10 8 0 12
-4 9 -10z"/>
<path d="M1150 156 c0 -20 5 -36 10 -36 6 0 10 14 10 30 0 20 5 30 15 30 10 0
15 -10 15 -30 0 -16 5 -30 11 -30 6 0 9 14 7 33 -3 28 -7 32 -35 35 -32 3 -33
2 -33 -32z"/>
<path d="M1245 179 c-13 -19 4 -59 25 -59 11 0 20 -5 20 -10 0 -6 -11 -8 -27
-4 -22 5 -25 4 -17 -6 7 -6 22 -10 35 -8 21 3 24 9 27 51 3 46 3 47 -27 47
-16 0 -33 -5 -36 -11z m48 -13 c7 -19 -18 -42 -28 -26 -8 13 1 40 14 40 5 0
11 -6 14 -14z"/>
<path d="M1482 158 c3 -29 7 -33 36 -36 31 -3 32 -2 32 32 0 20 -4 36 -10 36
-5 0 -10 -14 -10 -31 0 -38 -24 -35 -28 4 -5 39 -24 33 -20 -5z"/>
<path d="M1580 155 c0 -19 5 -35 10 -35 6 0 10 13 10 29 0 16 6 32 13 34 6 3
2 6 -10 6 -20 1 -23 -4 -23 -34z"/>
<path d="M1640 179 c0 -6 9 -8 20 -4 11 4 20 2 20 -4 0 -6 -9 -11 -20 -11 -13
0 -20 -7 -20 -20 0 -16 7 -20 30 -20 28 0 30 3 30 35 0 32 -2 35 -30 35 -16 0
-30 -5 -30 -11z m40 -39 c0 -5 -4 -10 -10 -10 -5 0 -10 5 -10 10 0 6 5 10 10
10 6 0 10 -4 10 -10z"/>
<path d="M1824 179 c-4 -8 0 -9 15 -4 11 3 21 2 21 -3 0 -5 -9 -12 -20 -15
-33 -8 -25 -37 10 -37 28 0 30 3 30 35 0 30 -3 35 -24 35 -14 0 -28 -5 -32
-11z m36 -39 c0 -5 -4 -10 -10 -10 -5 0 -10 5 -10 10 0 6 5 10 10 10 6 0 10
-4 10 -10z"/>
<path d="M1916 154 c12 -28 12 -39 3 -50 -9 -11 -8 -14 4 -14 8 0 22 18 31 40
19 47 20 60 6 60 -5 0 -10 -9 -10 -20 0 -11 -4 -20 -9 -20 -5 0 -11 9 -14 20
-3 11 -10 20 -16 20 -6 0 -4 -14 5 -36z"/>
<path d="M2000 182 c0 -6 9 -8 20 -5 29 8 25 -6 -6 -17 -34 -13 -26 -34 15
-38 31 -3 32 -2 29 30 -2 28 -7 34 -30 36 -16 2 -28 -1 -28 -6z m35 -42 c-3
-5 -10 -10 -16 -10 -5 0 -9 5 -9 10 0 6 7 10 16 10 8 0 12 -4 9 -10z"/>
<path d="M60 95 c-17 -20 3 -45 36 -45 23 0 41 -16 30 -28 -4 -3 -16 -1 -26 6
-24 14 -50 16 -50 2 0 -26 74 -39 111 -20 37 20 11 60 -40 60 -11 0 -23 5 -27
11 -5 8 6 9 36 4 33 -6 41 -4 38 6 -7 21 -91 24 -108 4z"/>
<path d="M190 55 c0 -41 4 -55 14 -55 10 0 16 13 18 38 l3 37 17 -37 c9 -21
23 -38 31 -38 8 0 21 17 30 38 l15 37 1 -38 c1 -31 4 -38 19 -35 13 3 17 14
17 53 0 49 -1 50 -31 53 -27 3 -32 -1 -41 -30 l-10 -33 -13 33 c-10 26 -17 32
-41 32 -28 0 -29 -1 -29 -55z"/>
<path d="M370 55 c0 -48 2 -55 20 -55 13 0 20 7 20 20 0 15 7 20 29 20 27 0
61 21 61 39 0 19 -29 31 -77 31 l-53 0 0 -55z m78 23 c-3 -7 -11 -13 -18 -13
-7 0 -15 6 -17 13 -3 7 4 12 17 12 13 0 20 -5 18 -12z"/>
</g>
</svg>
