<?xml version="1.0" standalone="no"?>
<!DOCTYPE svg PUBLIC "-//W3C//DTD SVG 20010904//EN"
 "http://www.w3.org/TR/2001/REC-SVG-20010904/DTD/svg10.dtd">
<svg version="1.0" xmlns="http://www.w3.org/2000/svg"
 width="135.000000pt" height="141.000000pt" viewBox="0 0 135.000000 141.000000"
 preserveAspectRatio="xMidYMid meet">

<g transform="translate(0.000000,141.000000) scale(0.100000,-0.100000)"
fill="#000000" stroke="none">
<path d="M710 1378 c0 -43 12 -68 32 -68 11 0 28 -5 39 -10 14 -8 19 -7 19 2
0 7 3 23 6 34 8 28 -30 64 -68 64 -22 0 -28 -4 -28 -22z"/>
<path d="M582 1348 l-44 -40 -1 -392 c-2 -340 -4 -391 -17 -391 -13 0 -16 56
-20 420 -3 233 -9 410 -13 398 -5 -13 -24 -36 -44 -52 l-36 -29 2 -319 c2
-364 8 -340 -89 -372 l-51 -17 20 -26 c34 -43 152 -116 230 -143 163 -55 343
-20 460 90 l47 44 3 350 c1 193 0 351 -3 351 -4 0 -29 -15 -56 -32 -41 -27
-49 -37 -43 -53 4 -11 8 -139 10 -284 3 -226 2 -266 -12 -287 -8 -13 -20 -24
-25 -24 -6 0 -10 88 -10 233 0 263 -1 269 -72 288 -48 12 -106 0 -129 -28 -11
-12 -15 -77 -19 -282 -4 -228 -7 -266 -20 -266 -13 0 -16 59 -20 452 l-5 452
-43 -41z m218 -599 c0 -214 -1 -230 -17 -227 -16 3 -18 23 -21 218 -1 118 0
220 2 227 3 7 12 13 21 13 13 0 15 -30 15 -231z"/>
<path d="M826 1334 c-13 -34 -6 -52 22 -56 15 -3 34 -8 42 -11 10 -4 22 5 37
28 21 34 21 35 3 45 -30 16 -97 12 -104 -6z"/>
<path d="M284 1235 c-72 -94 -114 -191 -116 -271 -1 -41 3 -57 16 -67 16 -12
16 -14 0 -46 -22 -43 -14 -112 22 -191 15 -33 29 -60 31 -60 2 0 24 5 49 11
l44 11 -30 34 c-37 43 -55 106 -43 158 11 54 35 67 68 36 20 -19 25 -20 25 -7
0 9 -7 32 -16 50 -15 32 -15 37 6 83 35 80 37 134 7 196 -15 29 -28 64 -29 78
-3 23 -4 23 -34 -15z m21 -146 c8 -25 -32 -119 -51 -119 -23 0 -25 34 -3 87
22 56 43 68 54 32z"/>
<path d="M746 1215 c-17 -13 -18 -19 -7 -55 10 -35 16 -40 40 -40 24 0 31 6
40 31 15 44 14 52 -10 67 -19 12 -20 11 -17 -20 2 -24 -1 -33 -12 -33 -11 0
-14 9 -12 33 4 36 4 36 -22 17z"/>
<path d="M1070 1125 c0 -49 7 -115 15 -145 20 -73 19 -238 -1 -335 -9 -42 -14
-79 -11 -82 8 -7 55 77 78 143 18 48 22 82 22 179 1 112 -1 125 -31 200 -18
44 -41 91 -52 105 l-20 25 0 -90z"/>
<path d="M52 212 c-18 -43 -32 -84 -32 -90 0 -21 41 -13 47 8 4 15 14 20 39
20 23 0 37 -6 44 -20 11 -21 50 -28 50 -9 0 5 -14 46 -31 90 -29 71 -34 79
-58 79 -24 0 -30 -8 -59 -78z m77 -19 c1 -7 -8 -13 -19 -13 -23 0 -25 12 -8
43 11 21 11 21 19 2 4 -11 8 -26 8 -32z"/>
<path d="M230 200 l0 -90 65 0 c58 0 65 2 65 20 0 17 -7 20 -40 20 l-40 0 0
70 c0 68 -1 70 -25 70 -25 0 -25 -1 -25 -90z"/>
<path d="M448 200 c3 -81 5 -90 23 -90 14 0 19 7 19 29 0 27 3 30 37 33 26 2
39 8 41 20 2 13 -5 17 -35 20 -26 2 -39 8 -41 20 -3 13 6 17 40 20 31 2 44 8
46 21 3 15 -5 17 -65 17 l-68 0 3 -90z"/>
<path d="M622 209 c-18 -44 -32 -84 -32 -90 0 -18 42 -9 47 11 4 15 14 20 39
20 23 0 37 -6 44 -20 11 -21 50 -28 50 -10 0 6 -14 47 -31 90 -28 73 -33 80
-58 80 -26 0 -31 -7 -59 -81z m78 -16 c0 -7 -9 -13 -20 -13 -22 0 -23 3 -13
39 6 23 7 23 20 6 7 -11 13 -25 13 -32z"/>
<path d="M800 200 l0 -91 62 3 c50 2 63 6 66 21 3 14 -4 17 -37 17 l-41 0 0
70 c0 68 -1 70 -25 70 -25 0 -25 -1 -25 -90z"/>
<path d="M1001 268 c-5 -13 -20 -51 -35 -85 -14 -34 -26 -65 -26 -68 0 -14 41
-2 50 15 8 14 21 20 45 20 24 0 37 -6 45 -20 12 -22 55 -28 48 -8 -3 7 -18 48
-34 91 -26 71 -31 77 -57 77 -19 0 -30 -7 -36 -22z m59 -80 c0 -5 -11 -8 -24
-8 -24 0 -24 2 -14 31 l11 32 13 -24 c7 -13 13 -27 14 -31z"/>
<path d="M1160 200 c0 -83 1 -90 20 -90 16 0 20 7 20 35 0 33 2 35 35 35 33 0
35 -2 35 -36 0 -31 3 -35 23 -32 21 3 22 8 25 91 l3 87 -26 0 c-21 0 -25 -5
-25 -30 0 -28 -3 -30 -35 -30 -32 0 -35 2 -35 30 0 23 -4 30 -20 30 -19 0 -20
-7 -20 -90z"/>
<path d="M10 43 c0 -24 3 -33 9 -25 7 12 4 62 -5 62 -2 0 -4 -17 -4 -37z"/>
<path d="M41 62 c-9 -17 7 -52 24 -52 4 0 2 7 -5 15 -6 8 -9 23 -5 35 8 25 -1
26 -14 2z"/>
<path d="M90 45 c0 -32 3 -35 28 -34 l27 1 -25 8 -25 7 25 11 c24 10 24 11 3
11 -13 1 -23 5 -23 10 0 5 10 12 23 14 19 4 18 4 -5 6 -26 1 -28 -2 -28 -34z"/>
<path d="M168 73 c6 -2 12 -18 12 -34 0 -16 5 -29 10 -29 6 0 10 13 10 29 0
16 6 32 13 34 6 3 -4 5 -23 5 -19 0 -29 -2 -22 -5z"/>
<path d="M243 45 c0 -22 2 -30 4 -17 2 12 2 30 0 40 -3 9 -5 -1 -4 -23z"/>
<path d="M281 45 c1 -33 2 -36 8 -15 l7 25 12 -22 c19 -34 32 -28 31 15 -1 23
-3 28 -6 15 -2 -13 -7 -23 -10 -23 -2 0 -13 10 -24 23 l-18 22 0 -40z"/>
<path d="M368 73 c6 -2 12 -18 12 -34 0 -16 4 -29 9 -29 6 0 8 9 6 20 -2 11 3
27 11 35 14 13 12 15 -18 14 -18 0 -27 -3 -20 -6z"/>
<path d="M438 47 l-16 -33 34 0 c19 1 34 1 34 2 0 11 -24 64 -29 64 -4 0 -14
-15 -23 -33z m32 -2 c0 -8 -7 -15 -15 -15 -9 0 -12 6 -9 15 4 8 10 15 15 15 5
0 9 -7 9 -15z"/>
<path d="M521 45 c1 -33 2 -36 8 -15 l7 25 12 -22 c19 -34 32 -28 31 15 -2 32
-3 33 -6 8 l-5 -29 -23 29 -24 29 0 -40z"/>
<path d="M610 65 c-18 -21 -8 -50 19 -53 31 -5 50 13 32 31 -10 10 -11 9 -6
-5 5 -14 2 -18 -13 -18 -40 0 -38 45 1 53 l22 4 -21 2 c-12 0 -27 -6 -34 -14z"/>
<path d="M720 61 c0 -11 10 -22 23 -26 l22 -7 -25 -8 -25 -8 28 -1 c32 -1 38
28 7 36 -25 7 -26 20 -2 26 13 4 11 5 -5 6 -16 1 -23 -5 -23 -18z"/>
<path d="M793 50 c2 -30 6 -35 30 -38 25 -3 27 -1 25 35 -1 38 -1 38 -5 5 -5
-42 -35 -40 -45 3 -6 29 -6 29 -5 -5z"/>
<path d="M877 73 c-10 -10 -8 -63 2 -63 5 0 11 6 14 13 3 9 8 9 21 -2 14 -12
16 -12 11 2 -4 8 -2 18 4 21 17 11 0 36 -23 36 -13 0 -26 -3 -29 -7z m43 -18
c0 -8 -7 -15 -15 -15 -8 0 -15 7 -15 15 0 8 7 15 15 15 8 0 15 -7 15 -15z"/>
<path d="M969 54 c-5 -15 -11 -30 -14 -34 -2 -3 12 -6 31 -6 26 1 33 4 28 16
-3 8 -9 23 -11 33 -8 25 -22 21 -34 -9z m31 -15 c0 -5 -7 -9 -15 -9 -9 0 -12
6 -9 15 6 15 24 11 24 -6z"/>
<path d="M1040 46 c0 -33 2 -36 30 -36 27 0 30 3 27 33 -2 27 -7 33 -30 35
-25 3 -27 1 -27 -32z m50 14 c0 -5 -9 -10 -20 -10 -11 0 -20 5 -20 10 0 6 9
10 20 10 11 0 20 -4 20 -10z m0 -30 c0 -5 -9 -10 -20 -10 -11 0 -20 5 -20 10
0 6 9 10 20 10 11 0 20 -4 20 -10z"/>
<path d="M1146 72 c-3 -5 -9 -20 -15 -33 -8 -22 -6 -24 24 -24 31 0 32 1 23
28 -11 30 -24 42 -32 29z m24 -33 c0 -5 -7 -9 -15 -9 -9 0 -12 6 -9 15 6 15
24 11 24 -6z"/>
<path d="M1200 75 c0 -6 4 -15 9 -21 5 -5 11 -16 13 -26 2 -11 9 -5 21 20 17
34 17 36 1 20 -16 -16 -18 -16 -30 0 -8 9 -14 12 -14 7z"/>
<path d="M1281 49 c-6 -18 -11 -32 -11 -33 0 -1 14 -1 30 -1 33 0 35 3 18 40
-15 33 -24 32 -37 -6z m29 -4 c0 -8 -4 -15 -10 -15 -5 0 -10 7 -10 15 0 8 5
15 10 15 6 0 10 -7 10 -15z"/>
</g>
</svg>
